<?xml version="1.0" encoding="UTF-8"?>
<svg version="1.1" xmlns="http://www.w3.org/2000/svg" width="620" height="133">
<path d="M0 0 C0.95865967 0.51280518 1.91731934 1.02561035 2.9050293 1.55395508 C3.97301758 2.11791992 5.04100586 2.68188477 6.14135742 3.26293945 C7.24286133 3.86041992 8.34436523 4.45790039 9.47924805 5.07348633 C10.56915039 5.65163086 11.65905273 6.22977539 12.78198242 6.82543945 C21.30848509 11.36299499 21.30848509 11.36299499 24.75415039 13.46264648 C25.90778076 14.16139893 25.90778076 14.16139893 27.0847168 14.87426758 C27.73593506 15.28845947 28.38715332 15.70265137 29.05810547 16.12939453 C33.10902 17.58288349 36.44503584 16.20253982 40.24707031 14.53491211 C41.31497803 13.97271973 42.38288574 13.41052734 43.4831543 12.83129883 C44.06209946 12.52908417 44.64104462 12.22686951 45.23753357 11.91549683 C47.07230632 10.95508899 48.90066099 9.98310986 50.72924805 9.01098633 C51.95998339 8.36572127 53.19110021 7.72118328 54.42260742 7.07739258 C60.73885619 3.7947273 60.73885619 3.7947273 66.86572266 0.1784668 C69.16674805 -1.11401367 69.16674805 -1.11401367 72.16674805 -1.11401367 C72.16674805 29.90598633 72.16674805 60.92598633 72.16674805 92.88598633 C35.16674805 111.88598633 35.16674805 111.88598633 28.16674805 110.88598633 C25.64826138 109.94673572 23.24379013 108.97206603 20.79956055 107.87426758 C19.40543864 107.27500709 18.01089385 106.67672962 16.6159668 106.0793457 C14.45000372 105.14164517 12.2881262 104.19686875 10.13305664 103.234375 C0.18748233 98.33265502 0.18748233 98.33265502 -10.40112305 98.89746094 C-11.20372559 99.22367432 -12.00632813 99.5498877 -12.83325195 99.88598633 C-14.66865415 100.47080703 -16.50436723 101.05474042 -18.34365845 101.62721252 C-22.53118763 102.94144543 -26.69092326 104.34205847 -30.85668945 105.72338867 C-32.92845086 106.40875846 -35.00187243 107.08891547 -37.07543945 107.76879883 C-38.91404541 108.37812256 -38.91404541 108.37812256 -40.78979492 108.99975586 C-43.83325195 109.88598633 -43.83325195 109.88598633 -46.83325195 109.88598633 C-46.83325195 77.54598633 -46.83325195 45.20598633 -46.83325195 11.88598633 C-5.62481672 -2.21163625 -5.62481672 -2.21163625 0 0 Z " fill="#7383BE" transform="translate(96.833251953125,11.114013671875)"/>
<path d="M0 0 C0 20.79 0 41.58 0 63 C-3.465 63.99 -3.465 63.99 -7 65 C-7 66.32 -7 67.64 -7 69 C-4.69 69 -2.38 69 0 69 C0 78.57 0 88.14 0 98 C-5.01572749 99.69491709 -10.03223862 101.38698552 -15.05126953 103.07202148 C-16.75689887 103.6455802 -18.46198522 104.22075638 -20.16650391 104.79760742 C-22.62259764 105.6284926 -25.08061254 106.45346033 -27.5390625 107.27734375 C-28.29555084 107.53466782 -29.05203918 107.79199188 -29.83145142 108.05711365 C-30.5517453 108.29728714 -31.27203918 108.53746063 -32.01416016 108.78491211 C-32.64037262 108.99587021 -33.26658508 109.20682831 -33.91177368 109.42417908 C-36.55971638 110.15433978 -39.2906046 110.5484341 -42 111 C-42 78.66 -42 46.32 -42 13 C-4 0 -4 0 0 0 Z " fill="#556080" transform="translate(92,10)"/>
<path d="M0 0 C0 31.02 0 62.04 0 94 C-37 113 -37 113 -39 113 C-39 100.13 -39 87.26 -39 74 C-37.515 73.505 -37.515 73.505 -36 73 C-36 72.34 -36 71.68 -36 71 C-36.99 70.67 -37.98 70.34 -39 70 C-39 53.17 -39 36.34 -39 19 C-23.8125 11.1875 -23.8125 11.1875 -19.04614258 8.73901367 C-17.7872038 8.09046466 -16.5283291 7.44179124 -15.26953125 6.79296875 C-14.62576538 6.4628479 -13.98199951 6.13272705 -13.31872559 5.79260254 C-10.55710277 4.36747141 -7.86626099 2.91603697 -5.2331543 1.26293945 C-3 0 -3 0 0 0 Z " fill="#465065" transform="translate(169,10)"/>
<path d="M0 0 C0.33 1.65 0.66 3.3 1 5 C1.7425 4.360625 2.485 3.72125 3.25 3.0625 C10.97733004 -2.05277481 22.3030916 -0.00230327 31 1 C31.495 3.475 31.495 3.475 32 6 C32.928125 5.360625 33.85625 4.72125 34.8125 4.0625 C39.37046936 1.11322571 42.35300911 0.88468326 47.6875 0.9375 C49.45673828 0.95103516 49.45673828 0.95103516 51.26171875 0.96484375 C52.16535156 0.97644531 53.06898438 0.98804688 54 1 C54.99 3.97 54.99 3.97 56 7 C56.48726563 6.566875 56.97453125 6.13375 57.4765625 5.6875 C64.31472839 0.31643152 70.49898733 0.0775 79 1 C80 2 80 2 80.12025452 4.05641174 C80.11803391 4.96020065 80.11581329 5.86398956 80.11352539 6.79516602 C80.11341209 8.32664024 80.11341209 8.32664024 80.11329651 9.88905334 C80.10813522 10.9994548 80.10297394 12.10985626 80.09765625 13.25390625 C80.0962413 14.38448959 80.09482635 15.51507294 80.09336853 16.67991638 C80.08775019 20.30747065 80.07519458 23.93496424 80.0625 27.5625 C80.05748736 30.01497307 80.05292405 32.4674471 80.04882812 34.91992188 C80.0377748 40.94663813 80.02049788 46.97330876 80 53 C74.555 52.505 74.555 52.505 69 52 C69.00785522 50.36587158 69.00785522 50.36587158 69.01586914 48.69873047 C69.03403023 44.63965686 69.04547251 40.58058682 69.05493164 36.52148438 C69.05994651 34.76789749 69.06676002 33.01431476 69.07543945 31.26074219 C69.08763 28.7337135 69.09325688 26.20674032 69.09765625 23.6796875 C69.10281754 22.90132538 69.10797882 22.12296326 69.11329651 21.3210144 C69.1137272 17.0996051 68.8358664 13.15908612 68 9 C63.40822144 11.77642425 60.01354797 14.43662736 57 19 C55.84128653 26.18116251 55.88061448 33.30303256 55.9375 40.5625 C55.94201172 41.66658203 55.94652344 42.77066406 55.95117188 43.90820312 C55.96284845 46.60549258 55.98077972 49.30275375 56 52 C52.37 52 48.74 52 45 52 C44.970271 50.20598755 44.970271 50.20598755 44.93994141 48.37573242 C44.86391728 43.94192306 44.77519503 39.50844326 44.68261719 35.07495117 C44.64431423 33.15542096 44.60946367 31.23581865 44.578125 29.31616211 C44.53250298 26.5581687 44.4745042 23.80067223 44.4140625 21.04296875 C44.40251129 20.18350143 44.39096008 19.32403412 44.37905884 18.43852234 C44.35918915 17.63791885 44.33931946 16.83731537 44.31884766 16.01245117 C44.30552399 15.3085173 44.29220032 14.60458344 44.2784729 13.87931824 C44.08755815 11.66902536 44.08755815 11.66902536 42 9 C40.86800647 9.9080162 39.74467637 10.82683826 38.625 11.75 C37.99851562 12.26046875 37.37203125 12.7709375 36.7265625 13.296875 C33.76888683 16.21440122 33.04632314 18.28931332 32.77294922 22.48339844 C32.77326383 23.85876461 32.78444222 25.2341578 32.8046875 26.609375 C32.80893234 27.69958954 32.80893234 27.69958954 32.81326294 28.81182861 C32.82442477 31.12472251 32.84952149 33.43722388 32.875 35.75 C32.88503499 37.32160898 32.89415994 38.89322404 32.90234375 40.46484375 C32.92435096 44.31004622 32.95885285 48.15495664 33 52 C27.06 52.495 27.06 52.495 21 53 C21.00523682 52.08822998 21.01047363 51.17645996 21.01586914 50.23706055 C21.03307523 46.80215807 21.04552912 43.36730247 21.05493164 39.93237305 C21.05991084 38.4554776 21.06669663 36.97858695 21.07543945 35.50170898 C21.12472428 26.95224188 21.01214531 18.50453103 20 10 C12.58498437 9.39132252 12.58498437 9.39132252 5.9375 12.3125 C2.82098072 14.72624839 2.82098072 14.72624839 2 18 C1.91518227 20.58630224 1.88401771 23.14478056 1.90234375 25.73046875 C1.90446617 26.85609978 1.90446617 26.85609978 1.90663147 28.00447083 C1.9122244 30.3988546 1.92477556 32.79314453 1.9375 35.1875 C1.94251592 36.81184761 1.94707866 38.43619668 1.95117188 40.06054688 C1.96219152 44.04040069 1.97945127 48.02018444 2 52 C-3.445 52.495 -3.445 52.495 -9 53 C-10.29947886 50.40104228 -9.88488295 48.95324209 -9.5390625 46.078125 C-8.94750928 40.23867683 -9.05219847 34.60183793 -9.375 28.75 C-9.42390381 27.75798584 -9.47280762 26.76597168 -9.52319336 25.74389648 C-9.92425696 17.82337169 -10.41276757 9.9088964 -11 2 C-9.5422647 1.664061 -8.08378894 1.33133376 -6.625 1 C-5.40683594 0.7215625 -5.40683594 0.7215625 -4.1640625 0.4375 C-2 0 -2 0 0 0 Z " fill="#0586BF" transform="translate(260,45)"/>
<path d="M0 0 C6.93 0.495 6.93 0.495 14 1 C14.33 2.65 14.66 4.3 15 6 C15.928125 5.360625 16.85625 4.72125 17.8125 4.0625 C22.37046936 1.11322571 25.35300911 0.88468326 30.6875 0.9375 C32.45673828 0.95103516 32.45673828 0.95103516 34.26171875 0.96484375 C35.16535156 0.97644531 36.06898438 0.98804688 37 1 C37.66 2.98 38.32 4.96 39 7 C39.48726563 6.566875 39.97453125 6.13375 40.4765625 5.6875 C47.31472839 0.31643152 53.49898733 0.0775 62 1 C63 2 63 2 63.12025452 4.05641174 C63.11803391 4.96020065 63.11581329 5.86398956 63.11352539 6.79516602 C63.11344986 7.81614883 63.11337433 8.83713165 63.11329651 9.88905334 C63.10813522 10.9994548 63.10297394 12.10985626 63.09765625 13.25390625 C63.0962413 14.38448959 63.09482635 15.51507294 63.09336853 16.67991638 C63.08775019 20.30747065 63.07519458 23.93496424 63.0625 27.5625 C63.05748736 30.01497307 63.05292405 32.4674471 63.04882812 34.91992188 C63.0377748 40.94663813 63.02049788 46.97330876 63 53 C59.37 52.67 55.74 52.34 52 52 C52.00523682 50.91058105 52.01047363 49.82116211 52.01586914 48.69873047 C52.03403023 44.63965686 52.04547251 40.58058682 52.05493164 36.52148438 C52.05994651 34.76789749 52.06676002 33.01431476 52.07543945 31.26074219 C52.08763 28.7337135 52.09325688 26.20674032 52.09765625 23.6796875 C52.10281754 22.90132538 52.10797882 22.12296326 52.11329651 21.3210144 C52.1137272 17.0996051 51.8358664 13.15908612 51 9 C46.40822144 11.77642425 43.01354797 14.43662736 40 19 C38.84128653 26.18116251 38.88061448 33.30303256 38.9375 40.5625 C38.94201172 41.66658203 38.94652344 42.77066406 38.95117188 43.90820312 C38.96284845 46.60549258 38.98077972 49.30275375 39 52 C35.37 52 31.74 52 28 52 C27.98018066 50.8039917 27.96036133 49.6079834 27.93994141 48.37573242 C27.86391728 43.94192306 27.77519503 39.50844326 27.68261719 35.07495117 C27.64431423 33.15542096 27.60946367 31.23581865 27.578125 29.31616211 C27.53250298 26.5581687 27.4745042 23.80067223 27.4140625 21.04296875 C27.40251129 20.18350143 27.39096008 19.32403412 27.37905884 18.43852234 C27.35918915 17.63791885 27.33931946 16.83731537 27.31884766 16.01245117 C27.30552399 15.3085173 27.29220032 14.60458344 27.2784729 13.87931824 C27.08755815 11.66902536 27.08755815 11.66902536 25 9 C23.86800647 9.9080162 22.74467637 10.82683826 21.625 11.75 C20.99851562 12.26046875 20.37203125 12.7709375 19.7265625 13.296875 C16.76888683 16.21440122 16.04632314 18.28931332 15.77294922 22.48339844 C15.77326383 23.85876461 15.78444222 25.2341578 15.8046875 26.609375 C15.8075174 27.33618469 15.81034729 28.06299438 15.81326294 28.81182861 C15.82442477 31.12472251 15.84952149 33.43722388 15.875 35.75 C15.88503499 37.32160898 15.89415994 38.89322404 15.90234375 40.46484375 C15.92435096 44.31004622 15.95885285 48.15495664 16 52 C10.06 52.495 10.06 52.495 4 53 C4.01047363 52.11965088 4.02094727 51.23930176 4.03173828 50.33227539 C5.67223722 24.46882183 5.67223722 24.46882183 0 0 Z " fill="#0586BF" transform="translate(340,45)"/>
<path d="M0 0 C0.73154297 0.00253784 1.46308594 0.00507568 2.21679688 0.00769043 C3.99870939 0.01424158 5.78060835 0.02432693 7.5625 0.03515625 C7.55202637 0.92074219 7.54155273 1.80632813 7.53076172 2.71875 C6.80925394 27.58222883 6.80925394 27.58222883 10.5625 52.03515625 C8.58340602 52.06202178 6.60421029 52.08149 4.625 52.09765625 C3.52285156 52.10925781 2.42070313 52.12085938 1.28515625 52.1328125 C-1.4375 52.03515625 -1.4375 52.03515625 -2.4375 51.03515625 C-2.83204223 49.18915937 -3.17926866 47.33289803 -3.5 45.47265625 C-3.67660156 44.46074219 -3.85320312 43.44882813 -4.03515625 42.40625 C-4.23431641 41.23255859 -4.23431641 41.23255859 -4.4375 40.03515625 C-4.99179687 40.74542969 -5.54609375 41.45570312 -6.1171875 42.1875 C-6.84164063 43.10660156 -7.56609375 44.02570313 -8.3125 44.97265625 C-9.03179687 45.88917969 -9.75109375 46.80570313 -10.4921875 47.75 C-12.86040103 50.53193758 -13.69628714 50.93706942 -17.30078125 51.4140625 C-26.25956967 51.8909176 -26.25956967 51.8909176 -29.265625 49.70703125 C-30.70739224 47.53525528 -31.57035034 45.49697943 -32.4375 43.03515625 C-32.82421875 41.98585937 -33.2109375 40.9365625 -33.609375 39.85546875 C-35.99349798 32.78474787 -37.78469809 26.80731091 -35.1875 19.53515625 C-28.16415917 5.48847459 -28.16415917 5.48847459 -21.4375 2.03515625 C-14.43542739 -0.07703921 -7.24837683 -0.04849383 0 0 Z M-16.33203125 8.98046875 C-17.91791909 11.60621723 -19.22070471 14.22006219 -20.4375 17.03515625 C-20.77652344 17.78410156 -21.11554688 18.53304687 -21.46484375 19.3046875 C-22.97584449 22.94640818 -23.80704092 26.09338647 -23.4375 30.03515625 C-21.07173284 27.66938909 -20.51864955 25.81069362 -19.4375 22.66015625 C-18.28537243 19.32078649 -17.09492146 16.15761989 -15.4375 13.03515625 C-10.66173661 13.50336835 -7.39273655 14.27847623 -3.4375 17.03515625 C-3.416875 15.75640625 -3.39625 14.47765625 -3.375 13.16015625 C-3.36339844 12.44085938 -3.35179687 11.7215625 -3.33984375 10.98046875 C-3.31100758 8.95330221 -3.31100758 8.95330221 -4.4375 7.03515625 C-10.94163559 5.86083096 -10.94163559 5.86083096 -16.33203125 8.98046875 Z M-12.4375 28.03515625 C-12.7675 30.34515625 -13.0975 32.65515625 -13.4375 35.03515625 C-16.4075 34.70515625 -19.3775 34.37515625 -22.4375 34.03515625 C-22.14875 35.47890625 -21.86 36.92265625 -21.5625 38.41015625 C-21.31886719 39.62832031 -21.31886719 39.62832031 -21.0703125 40.87109375 C-20.57091068 43.22189548 -20.57091068 43.22189548 -18.4375 45.03515625 C-14.57192676 40.86440618 -12.50206166 37.78378919 -11.4375 32.03515625 C-11.70249604 29.70207177 -11.70249604 29.70207177 -12.4375 28.03515625 Z " fill="#0586C0" transform="translate(513.4375,45.96484375)"/>
<path d="M0 0 C5.55702331 7.74615371 9.03463964 17.44739017 7.68359375 26.98828125 C3.70037852 44.5371895 3.70037852 44.5371895 -1 48 C-8.0674774 50.53362397 -15.55573585 50.66431754 -23 50 C-28.23903797 44.76096203 -29.73759752 33.02515495 -30.20703125 25.82421875 C-29.99117954 23.14032677 -29.56655521 20.63281541 -29 18 C-28.74634839 16.66841416 -28.49524329 15.3363418 -28.24609375 14.00390625 C-27.54486542 10.32502301 -26.78571282 6.66171823 -26 3 C-23.08550837 2.26028131 -20.16954803 1.52815217 -17.25 0.80859375 C-15.2867485 0.32014055 -13.32701688 -0.18326772 -11.375 -0.71484375 C-3.75711672 -2.6836548 -3.75711672 -2.6836548 0 0 Z M-18 8 C-18.33 8.99 -18.66 9.98 -19 11 C-13.06 10.505 -13.06 10.505 -7 10 C-7.33 8.68 -7.66 7.36 -8 6 C-11.83134499 5.781066 -14.58442859 6.19733731 -18 8 Z M-7 11 C-6 14 -6 14 -6 14 Z M-6 15 C-5.67 19.62 -5.34 24.24 -5 29 C-4.67 29 -4.34 29 -4 29 C-3.94562393 27.41705218 -3.90703729 25.83355744 -3.875 24.25 C-3.84019531 22.92742187 -3.84019531 22.92742187 -3.8046875 21.578125 C-3.86359229 18.64219919 -3.86359229 18.64219919 -6 15 Z M-19 18 C-20.4587535 25.02853959 -19.20300447 30.229184 -17 37 C-14.56164332 35.00896808 -14.56164332 35.00896808 -14.8046875 31.0859375 C-14.81799624 29.51550649 -14.84186398 27.94513779 -14.875 26.375 C-14.88402344 25.57320312 -14.89304687 24.77140625 -14.90234375 23.9453125 C-14.92593777 21.96341477 -14.96180935 19.98167019 -15 18 C-16.32 18 -17.64 18 -19 18 Z M-6 31 C-5 33 -5 33 -5 33 Z M-16 38 C-15.67 39.98 -15.34 41.96 -15 44 C-12.08347826 44.16681109 -12.08347826 44.16681109 -9 44 C-8.34 43.34 -7.68 42.68 -7 42 C-7 41.01 -7 40.02 -7 39 C-9.97 38.67 -12.94 38.34 -16 38 Z " fill="#0587C0" transform="translate(434,47)"/>
<path d="M0 0 C5.31034262 5.12325738 7.76635943 13.97465729 9 21 C8.93787721 29.66612929 6.47253143 39.55301805 2 47 C-3.73618443 50.6203787 -9.0285692 51.14953574 -15.6875 51.1875 C-17.39486328 51.20876953 -17.39486328 51.20876953 -19.13671875 51.23046875 C-22 51 -22 51 -24 49 C-27.79573485 38.46375667 -29.90799752 29.18975991 -28 18 C-27.85949219 16.89140625 -27.71898437 15.7828125 -27.57421875 14.640625 C-26.35676646 5.79027617 -26.35676646 5.79027617 -23 3 C-21.08642578 2.27636719 -21.08642578 2.27636719 -18.9453125 1.796875 C-17.77548828 1.53390625 -17.77548828 1.53390625 -16.58203125 1.265625 C-15.77121094 1.09546875 -14.96039063 0.9253125 -14.125 0.75 C-13.32191406 0.564375 -12.51882812 0.37875 -11.69140625 0.1875 C-3.88446241 -1.5102209 -3.88446241 -1.5102209 0 0 Z M-18 9 C-18 9.99 -18 10.98 -18 12 C-12.06 11.505 -12.06 11.505 -6 11 C-6.33 9.68 -6.66 8.36 -7 7 C-11.08718695 6.75957724 -14.17679443 7.57741188 -18 9 Z M-6 13 C-5 17 -5 17 -5 17 Z M-5 17 C-5 22.28 -5 27.56 -5 33 C-2.99500465 29.04001531 -2.99500465 29.04001531 -2.75 25 C-2.74226563 24.01 -2.74226563 24.01 -2.734375 23 C-2.94775071 20.56189242 -2.94775071 20.56189242 -5 17 Z M-18 19 C-21.11933785 25.23867569 -17.88094297 32.80856271 -16 39 C-15.67 39 -15.34 39 -15 39 C-14.11722245 34.48184719 -13.89410497 30.22487306 -13.9375 25.625 C-13.95103516 23.75714844 -13.95103516 23.75714844 -13.96484375 21.8515625 C-13.97644531 20.91054687 -13.98804688 19.96953125 -14 19 C-15.32 19 -16.64 19 -18 19 Z M-15 39 C-14.67 40.98 -14.34 42.96 -14 45 C-10.535 44.505 -10.535 44.505 -7 44 C-6.67 42.68 -6.34 41.36 -6 40 C-8.97 39.67 -11.94 39.34 -15 39 Z " fill="#0587C0" transform="translate(240,46)"/>
<path d="M0 0 C2.40127244 2.23694696 2.950905 3.61146321 3.36328125 6.875 C3.34652344 7.90625 3.32976562 8.9375 3.3125 10 C3.30863281 11.03125 3.30476563 12.0625 3.30078125 13.125 C3 16 3 16 1 20 C-4.94 20 -10.88 20 -17 20 C-17 20.66 -17 21.32 -17 22 C-16.13117188 22.17015625 -15.26234375 22.3403125 -14.3671875 22.515625 C-13.21476562 22.75796875 -12.06234375 23.0003125 -10.875 23.25 C-9.73804688 23.48203125 -8.60109375 23.7140625 -7.4296875 23.953125 C-3.53071757 25.14324338 -1.02962664 26.24989248 2 29 C2.69931703 31.96737225 2.9587801 33.91769751 2.875 36.875 C2.85663086 37.95418701 2.85663086 37.95418701 2.83789062 39.05517578 C2.64620489 42.2747588 2.26277179 44.60112589 0.4765625 47.3125 C-1.61941735 48.96940107 -3.52158737 50.01034126 -6 51 C-6.63550781 51.2578125 -7.27101563 51.515625 -7.92578125 51.78125 C-13.2164634 53.44622658 -19.56021646 53.99673052 -25 53 C-27.3359375 51.45703125 -27.3359375 51.45703125 -29 49 C-29.18365847 46.24216076 -29.16308875 44.01590422 -28.875 41.3125 C-28.82601563 40.62349609 -28.77703125 39.93449219 -28.7265625 39.22460938 C-28.5749853 37.47285929 -28.29685626 35.73305522 -28 34 C-24.828262 32.414131 -21.36486178 32.62133555 -17.875 32.4375 C-16.74384766 32.37272461 -16.74384766 32.37272461 -15.58984375 32.30664062 C-13.72678112 32.2005168 -11.86341476 32.09974999 -10 32 C-16.38519907 29.8266236 -16.38519907 29.8266236 -22.875 28 C-26.01406923 26.99549785 -27.05884745 26.54812061 -29 24 C-29.84417693 18.72616347 -29.56427552 12.70117179 -27 8 C-20.18108488 1.06437973 -9.61970366 -2.04896215 0 0 Z M-13 7 C-13 7.33 -13 7.66 -13 8 C-11.02 8 -9.04 8 -7 8 C-7 7.67 -7 7.34 -7 7 C-8.98 7 -10.96 7 -13 7 Z M-7 8 C-7.33 9.65 -7.66 11.3 -8 13 C-7.34 13 -6.68 13 -6 13 C-6 11.35 -6 9.7 -6 8 C-6.33 8 -6.66 8 -7 8 Z M-17 10 C-16 12 -16 12 -16 12 Z M-18 12 C-17 16 -17 16 -17 16 Z M-20 40 C-20 40.99 -20 41.98 -20 43 C-19.34 43 -18.68 43 -18 43 C-18 42.01 -18 41.02 -18 40 C-18.66 40 -19.32 40 -20 40 Z M-9 40 C-8 42 -8 42 -8 42 Z M-19 45 C-19 45.33 -19 45.66 -19 46 C-16.69 46 -14.38 46 -12 46 C-12 45.67 -12 45.34 -12 45 C-14.31 45 -16.62 45 -19 45 Z " fill="#0587C0" transform="translate(472,44)"/>
<path d="M0 0 C0.87462891 0.00902344 1.74925781 0.01804687 2.65039062 0.02734375 C4.78788064 0.0507043 6.92522786 0.08656753 9.0625 0.125 C9.90954268 4.37295087 10.10996383 8.12330667 9.75 12.4375 C9.67136719 13.48550781 9.59273437 14.53351562 9.51171875 15.61328125 C9.36347656 16.44214844 9.21523437 17.27101563 9.0625 18.125 C6.765963 19.2732685 5.47936833 19.24061175 2.9296875 19.22265625 C2.12402344 19.21943359 1.31835938 19.21621094 0.48828125 19.21289062 C-0.35347656 19.20451172 -1.19523437 19.19613281 -2.0625 19.1875 C-2.91199219 19.18298828 -3.76148438 19.17847656 -4.63671875 19.17382812 C-6.73700909 19.16202874 -8.8372633 19.14409306 -10.9375 19.125 C-11.2675 20.445 -11.5975 21.765 -11.9375 23.125 C-11.09445313 22.87943359 -11.09445313 22.87943359 -10.234375 22.62890625 C-7.80690944 22.09635003 -5.66860319 22.02601319 -3.1875 22.0625 C-2.38828125 22.07152344 -1.5890625 22.08054687 -0.765625 22.08984375 C-0.16234375 22.10144531 0.4409375 22.11304687 1.0625 22.125 C0 24.5 0 24.5 -1.9375 27.125 C-5.43759008 28.43753378 -8.20269349 29.125 -11.9375 29.125 C-11.90720703 29.75365967 -11.87691406 30.38231934 -11.84570312 31.0300293 C-10.74741939 54.12144479 -10.74741939 54.12144479 -10.9375 65.125 C-12.37407245 65.46230842 -13.81180093 65.79469591 -15.25 66.125 C-16.05050781 66.310625 -16.85101563 66.49625 -17.67578125 66.6875 C-19.9375 67.125 -19.9375 67.125 -22.9375 67.125 C-22.9375 54.585 -22.9375 42.045 -22.9375 29.125 C-24.5875 28.795 -26.2375 28.465 -27.9375 28.125 C-27.6075 26.145 -27.2775 24.165 -26.9375 22.125 C-25.6175 21.795 -24.2975 21.465 -22.9375 21.125 C-22.91623047 19.69607422 -22.91623047 19.69607422 -22.89453125 18.23828125 C-22.50493052 7.99283491 -22.50493052 7.99283491 -19.8125 3.875 C-13.39359915 -0.03215704 -7.31320998 -0.14459579 0 0 Z M-9.9375 6.125 C-10.2675 7.775 -10.5975 9.425 -10.9375 11.125 C-10.2775 9.805 -9.6175 8.485 -8.9375 7.125 C-6.2975 7.125 -3.6575 7.125 -0.9375 7.125 C-0.9375 6.795 -0.9375 6.465 -0.9375 6.125 C-3.9075 6.125 -6.8775 6.125 -9.9375 6.125 Z M-0.9375 8.125 C-1.2675 9.445 -1.5975 10.765 -1.9375 12.125 C-1.2775 12.125 -0.6175 12.125 0.0625 12.125 C-0.2675 10.805 -0.5975 9.485 -0.9375 8.125 Z " fill="#0587C0" transform="translate(207.9375,30.875)"/>
<path d="M0 0 C0 5.28 0 10.56 0 16 C-3.96 16.495 -3.96 16.495 -8 17 C-9.28317892 13.15046324 -9.06643637 10.05261865 -9 6 C-10.98 6.33 -12.96 6.66 -15 7 C-15.12375 8.0725 -15.2475 9.145 -15.375 10.25 C-15.6687715 12.78711753 -16.04972556 15.21841482 -16.6171875 17.7109375 C-18.22227679 25.10227459 -17.60214138 30.75164861 -15.7265625 38.06640625 C-15 41 -15 41 -15 44 C-13.35 44 -11.7 44 -10 44 C-9.34 40.7 -8.68 37.4 -8 34 C-5.36 34 -2.72 34 0 34 C0 37.96 0 41.92 0 46 C-11.13726602 51.07728304 -11.13726602 51.07728304 -17 51.375 C-17.66 51.42398438 -18.32 51.47296875 -19 51.5234375 C-22.21075505 50.6831227 -23.20328113 48.70968578 -25 46 C-31.13194351 32.63881782 -30.81386044 24.14421027 -26.38671875 10.671875 C-24.04680474 4.47604635 -24.04680474 4.47604635 -22 2 C-14.86670762 -0.91618073 -7.57697578 -0.13410577 0 0 Z " fill="#0587C0" transform="translate(570,46)"/>
<path d="M0 0 C-0.0721875 1.23492187 -0.144375 2.46984375 -0.21875 3.7421875 C-1.04233418 18.47877564 -1.75489081 33.20598268 -0.12109375 47.91015625 C-0.08113281 48.59980469 -0.04117188 49.28945312 0 50 C-2.86744176 52.86744176 -7.96147875 51.6328617 -12 52 C-12 35.17 -12 18.34 -12 1 C-7.76358987 0.15271797 -4.27587998 -0.08384078 0 0 Z " fill="#0587C0" transform="translate(538,46)"/>
<path d="M0 0 C2.375 1.5625 2.375 1.5625 4 4 C4.7099846 8.9698922 4.79117716 10.84919686 1.9375 15 C-1.77807226 17.52975133 -3.5882483 17.7878128 -8 17 C-10.93052231 15.00475077 -12.64521503 13.57163515 -13.4453125 10.02734375 C-13.64297244 6.50240818 -13.298885 4.40194879 -11.1875 1.5625 C-7.23814633 -1.25846691 -4.58583056 -1.21664892 0 0 Z " fill="#D45A4B" transform="translate(78,29)"/>
<path d="M0 0 C4.29 0 8.58 0 13 0 C12.67 4.29 12.34 8.58 12 13 C8.37 13.33 4.74 13.66 1 14 C0.67 9.38 0.34 4.76 0 0 Z " fill="#0587C0" transform="translate(525,30)"/>
<path d="M0 0 C0.598125 0.33 1.19625 0.66 1.8125 1 C4.05386471 2.20787988 4.05386471 2.20787988 7 2 C9.15028304 1.05021103 9.15028304 1.05021103 11 0 C11.93065133 2.60582371 12.14917407 3.64198224 11.0625 6.25 C10.711875 6.8275 10.36125 7.405 10 8 C10.66 8.66 11.32 9.32 12 10 C11.625 12.125 11.625 12.125 11 14 C10.4225 13.649375 9.845 13.29875 9.25 12.9375 C6.5676725 11.81986354 5.70625246 12.15429611 3 13 C1.68 13 0.36 13 -1 13 C-0.835 12.4225 -0.67 11.845 -0.5 11.25 C0.15295153 8.31171813 0.18865233 5.73364793 -0.5625 2.8125 C-0.706875 2.214375 -0.85125 1.61625 -1 1 C-0.67 0.67 -0.34 0.34 0 0 Z " fill="#424A61" transform="translate(68,57)"/>
<path d="M0 0 C0.33 1.32 0.66 2.64 1 4 C-3.49656104 6.24828052 -7.07872966 6.16682272 -12 6 C-12 4.68 -12 3.36 -12 2 C-7.82262526 0.40861915 -4.46839215 -0.21278058 0 0 Z " fill="#D7C154" transform="translate(97,73)"/>
<path d="M0 0 C1.41623216 -0.05447047 2.83308191 -0.09300508 4.25 -0.125 C5.03890625 -0.14820312 5.8278125 -0.17140625 6.640625 -0.1953125 C9.20731941 0.0171622 10.7916067 0.71345895 13 2 C12.67 2.99 12.34 3.98 12 5 C10.20841511 5.02696365 8.41671527 5.04637917 6.625 5.0625 C5.62726563 5.07410156 4.62953125 5.08570312 3.6015625 5.09765625 C1 5 1 5 -1 4 C-0.67 2.68 -0.34 1.36 0 0 Z " fill="#DED137" transform="translate(121,79)"/>
<path d="M0 0 C0.53625 0.268125 1.0725 0.53625 1.625 0.8125 C1.0596089 4.31945293 -0.06222726 5.83982613 -2.75 8.125 C-3.35585937 8.65738281 -3.96171875 9.18976563 -4.5859375 9.73828125 C-5.17632812 10.09277344 -5.76671875 10.44726562 -6.375 10.8125 C-7.365 10.4825 -8.355 10.1525 -9.375 9.8125 C-9.16578357 6.15121248 -8.22641649 4.33301181 -5.5625 1.9375 C-2.375 -0.1875 -2.375 -0.1875 0 0 Z " fill="#E3C54D" transform="translate(79.375,78.1875)"/>
<path d="M0 0 C1.32 0.33 2.64 0.66 4 1 C3.14285714 9.57142857 3.14285714 9.57142857 1 13 C-0.32 12.67 -1.64 12.34 -3 12 C-2.69106068 10.3743193 -2.3777305 8.74947252 -2.0625 7.125 C-1.88847656 6.22007813 -1.71445313 5.31515625 -1.53515625 4.3828125 C-1 2 -1 2 0 0 Z " fill="#A58A3D" transform="translate(152,55)"/>
<path d="M0 0 C3.63 0.66 7.26 1.32 11 2 C11.33 3.32 11.66 4.64 12 6 C8.57056481 7.18771723 6.62215325 6.80226223 3.25 5.5625 C2.45078125 5.27503906 1.6515625 4.98757812 0.828125 4.69140625 C0.22484375 4.46324219 -0.3784375 4.23507813 -1 4 C-0.67 2.68 -0.34 1.36 0 0 Z " fill="#F3E931" transform="translate(104,74)"/>
<path d="M0 0 C-0.08047228 2.8165298 -0.47561721 4.48909749 -2.51953125 6.48046875 C-5.95445919 9.06208827 -5.95445919 9.06208827 -8 10 C-8.99 9.67 -9.98 9.34 -11 9 C-10.74682781 5.58217544 -9.71625376 4.72255923 -7.1875 2.25 C-4 0 -4 0 0 0 Z " fill="#A78B3C" transform="translate(149,72)"/>
<path d="M0 0 C0.99 0 1.98 0 3 0 C2.45144652 4.571279 1.58255197 8.67435795 0 13 C-1.32 12.67 -2.64 12.34 -4 12 C-3.53898164 7.29761275 -2.96823597 3.76737643 0 0 Z " fill="#E2C54E" transform="translate(66,92)"/>
<path d="M0 0 C0.99 0.33 1.98 0.66 3 1 C3 4.96 3 8.92 3 13 C1.68 13 0.36 13 -1 13 C-1.02686553 11.02090602 -1.04633375 9.04171029 -1.0625 7.0625 C-1.07410156 5.96035156 -1.08570313 4.85820313 -1.09765625 3.72265625 C-1 1 -1 1 0 0 Z " fill="#AD8F3A" transform="translate(154,37)"/>
<path d="M0 0 C1.65 0 3.3 0 5 0 C5.125 6.75 5.125 6.75 4 9 C2.68 8.67 1.36 8.34 0 8 C0 5.36 0 2.72 0 0 Z " fill="#444B62" transform="translate(71,46)"/>
<path d="M0 0 C1.98 0 3.96 0 6 0 C5.67 1.32 5.34 2.64 5 4 C3.35 4 1.7 4 0 4 C0 2.68 0 1.36 0 0 Z " fill="#F8ED2B" transform="translate(92,74)"/>
</svg>
